<svg width="113" height="26" viewBox="0 0 113 26" fill="none" xmlns="http://www.w3.org/2000/svg">
<path d="M15.8972 4.95159L16.9743 7.70919C17.3421 8.65106 18.2412 9.27858 19.2521 9.29914L22.0328 9.35567C23.4923 9.38534 24.0537 11.2707 22.8483 12.094L21.0101 13.3494C20.0868 13.98 19.6945 15.147 20.0493 16.2073L20.7889 18.4171C21.2347 19.7492 19.7687 20.9084 18.5752 20.1675L15.8186 18.4561C15.011 17.9547 13.989 17.9547 13.1814 18.4561L10.4248 20.1675C9.23129 20.9084 7.76533 19.7492 8.21115 18.4171L8.95067 16.2072C9.3055 15.147 8.91316 13.98 7.98986 13.3494L6.15175 12.094C4.94626 11.2707 5.50773 9.38534 6.96724 9.35567L9.74786 9.29914C10.7588 9.27858 11.6579 8.65106 12.0257 7.70919L13.1028 4.95159C13.5998 3.67922 15.4002 3.67922 15.8972 4.95159Z" fill="#EBEF0F" stroke="#D3A707"/>
<path d="M36.8972 4.95159L37.9743 7.70919C38.3421 8.65106 39.2412 9.27858 40.2521 9.29914L43.0328 9.35567C44.4923 9.38534 45.0537 11.2707 43.8483 12.094L42.0101 13.3494C41.0868 13.98 40.6945 15.147 41.0493 16.2073L41.7889 18.4171C42.2347 19.7492 40.7687 20.9084 39.5752 20.1675L36.8186 18.4561C36.011 17.9547 34.989 17.9547 34.1814 18.4561L31.4248 20.1675C30.2313 20.9084 28.7653 19.7492 29.2111 18.4171L29.9507 16.2072C30.3055 15.147 29.9132 13.98 28.9899 13.3494L27.1518 12.094C25.9463 11.2707 26.5077 9.38534 27.9672 9.35567L30.7479 9.29914C31.7588 9.27858 32.6579 8.65106 33.0257 7.70919L34.1028 4.95159C34.5998 3.67922 36.4002 3.67922 36.8972 4.95159Z" fill="#EBEF0F" stroke="#D3A707"/>
<path d="M57.8972 4.95159L58.9743 7.70919C59.3421 8.65106 60.2412 9.27858 61.2521 9.29914L64.0328 9.35567C65.4923 9.38534 66.0537 11.2707 64.8483 12.094L63.0101 13.3494C62.0868 13.98 61.6945 15.147 62.0493 16.2073L62.7889 18.4171C63.2347 19.7492 61.7687 20.9084 60.5752 20.1675L57.8186 18.4561C57.011 17.9547 55.989 17.9547 55.1814 18.4561L52.4248 20.1675C51.2313 20.9084 49.7653 19.7492 50.2111 18.4171L50.9507 16.2072C51.3055 15.147 50.9132 13.98 49.9899 13.3494L48.1518 12.094C46.9463 11.2707 47.5077 9.38534 48.9672 9.35567L51.7479 9.29914C52.7588 9.27858 53.6579 8.65106 54.0257 7.70919L55.1028 4.95159C55.5998 3.67922 57.4002 3.67922 57.8972 4.95159Z" fill="#EBEF0F" stroke="#D3A707"/>
<path d="M78.8972 4.95159L79.9743 7.70919C80.3421 8.65106 81.2412 9.27858 82.2521 9.29914L85.0328 9.35567C86.4923 9.38534 87.0537 11.2707 85.8483 12.094L84.0101 13.3494C83.0868 13.98 82.6945 15.147 83.0493 16.2073L83.7889 18.4171C84.2347 19.7492 82.7687 20.9084 81.5752 20.1675L78.8186 18.4561C78.011 17.9547 76.989 17.9547 76.1814 18.4561L73.4248 20.1675C72.2313 20.9084 70.7653 19.7492 71.2111 18.4171L71.9507 16.2072C72.3055 15.147 71.9132 13.98 70.9899 13.3494L69.1518 12.094C67.9463 11.2707 68.5077 9.38534 69.9672 9.35567L72.7479 9.29914C73.7588 9.27858 74.6579 8.65106 75.0257 7.70919L76.1028 4.95159C76.5998 3.67922 78.4002 3.67922 78.8972 4.95159Z" fill="#EBEF0F" stroke="#D3A707"/>
<path d="M99.8972 4.95159L100.974 7.70919C101.342 8.65106 102.241 9.27858 103.252 9.29914L106.033 9.35567C107.492 9.38534 108.054 11.2707 106.848 12.094L105.01 13.3494C104.087 13.98 103.694 15.147 104.049 16.2073L104.789 18.4171C105.235 19.7492 103.769 20.9084 102.575 20.1675L99.8186 18.4561C99.011 17.9547 97.989 17.9547 97.1814 18.4561L94.4248 20.1675C93.2313 20.9084 91.7653 19.7492 92.2111 18.4171L92.9507 16.2072C93.3055 15.147 92.9132 13.98 91.9899 13.3494L90.1518 12.094C88.9463 11.2707 89.5077 9.38534 90.9672 9.35567L93.7479 9.29914C94.7588 9.27858 95.6579 8.65106 96.0257 7.70919L97.1028 4.95159C97.5998 3.67922 99.4002 3.67922 99.8972 4.95159Z" stroke="#D3A707"/>
</svg>
